Coordinates
version=1
nRows=22
nColumns=24
inDegrees=yes

Units are S.I. units (second, meters, Newtons, ...)
Angles are in degrees.

endheader
time	pelvis_tilt	pelvis_list	pelvis_rotation	pelvis_tx	pelvis_ty	pelvis_tz	hip_flexion_r	hip_adduction_r	hip_rotation_r	knee_angle_r	ankle_angle_r	subtalar_angle_r	mtp_angle_r	hip_flexion_l	hip_adduction_l	hip_rotation_l	knee_angle_l	ankle_angle_l	subtalar_angle_l	mtp_angle_l	lumbar_extension	lumbar_bending	lumbar_rotation
      1.18733333	      5.77595050	      4.41186851	     -4.85770860	      0.12164884	      1.02704626	      0.24539631	      8.71797532	     -4.71581511	     -1.50011348	    -62.83490696	      5.32441633	    -22.07912757	      1.58131368	      2.81800297	      7.59286895	      0.11416252	    -11.78771968	      3.89895067	    -13.30709223	      2.62201833	     -8.47810354	     -6.37037056	      6.78145332
      1.19150000	      5.72831083	      4.29678256	     -4.86060838	      0.12658187	      1.02772909	      0.24526485	      9.25249620	     -4.53005539	     -1.44571906	    -62.38066012	      5.56079430	    -22.13098927	      1.55715043	      2.39561145	      7.50662414	      0.17319792	    -11.49028913	      4.01186040	    -13.27424170	      2.61394947	     -8.47601226	     -6.26752051	      6.72375275
      1.19566667	      5.71942960	      4.13550701	     -4.80658969	      0.13150749	      1.02849823	      0.24504831	      9.69734838	     -4.30621525	     -1.46172567	    -61.81316128	      5.72832431	    -22.15862476	      1.39614750	      1.90938254	      7.38682485	      0.38406909	    -11.15768527	      4.05079008	    -13.47198991	      2.54498234	     -8.53791482	     -6.09205846	      6.39189871
      1.19983333	      5.66060548	      3.98924130	     -4.78442654	      0.13645336	      1.02914350	      0.24493036	     10.19609661	     -4.07609772	     -1.42177675	    -61.20325134	      5.93753594	    -22.13255358	      1.34142483	      1.49550396	      7.26036453	      0.45632431	    -10.86007241	      4.12082589	    -13.48510170	      2.51740999	     -8.52831028	     -5.95023313	      6.28620158
      1.20400000	      5.63513428	      3.85810612	     -4.73204241	      0.14139812	      1.02981437	      0.24474891	     10.63716684	     -3.87949969	     -1.42278016	    -60.52549563	      6.08010627	    -22.07646327	      1.20472052	      1.01847176	      7.16497462	      0.65797064	    -10.50403196	      4.18886197	    -13.62195249	      2.43897780	     -8.56206330	     -5.82226806	      5.97982470
      1.20816667	      5.57100709	      3.71103024	     -4.69656860	      0.14635136	      1.03041157	      0.24463727	     11.10400576	     -3.64531317	     -1.38741307	    -59.78318863	      6.23823828	    -21.98505372	      1.15769269	      0.60545762	      7.03301877	      0.73230851	    -10.19441063	      4.25399626	    -13.62736547	      2.40608289	     -8.54612904	     -5.67761866	      5.86559311
      1.21233333	      5.56069123	      3.58199003	     -4.63561734	      0.15130610	      1.03104690	      0.24448087	     11.49229130	     -3.45010861	     -1.39111800	    -58.98234354	      6.35421927	    -21.86676862	      1.06689881	      0.10990123	      6.93248291	      0.91215402	     -9.83315143	      4.33149357	    -13.72194481	      2.33305866	     -8.59605209	     -5.54989459	      5.57235722
      1.21650000	      5.51951683	      3.45554451	     -4.58212809	      0.15625740	      1.03158172	      0.24435475	     11.90491216	     -3.24631417	     -1.37127538	    -58.13848488	      6.47421745	    -21.72493046	      0.97819304	     -0.34373398	      6.82693682	      1.05370867	     -9.48619966	      4.38471543	    -13.79181839	      2.24549048	     -8.61500188	     -5.42844401	      5.33980028
      1.22066667	      5.43836721	      3.32899313	     -4.54454284	      0.16123726	      1.03201744	      0.24426639	     12.35149786	     -3.03374382	     -1.33211455	    -57.25128685	      6.56640664	    -21.58330692	      0.96126945	     -0.74868133	      6.70943121	      1.11182353	     -9.15030647	      4.46890831	    -13.75183199	      2.22406908	     -8.57604500	     -5.28947169	      5.24528178
      1.22483333	      5.44422038	      3.19223486	     -4.45569445	      0.16618458	      1.03258356	      0.24413394	     12.65919088	     -2.82645757	     -1.34556799	    -56.27182514	      6.62116153	    -21.41755145	      0.90501586	     -1.25516558	      6.59043113	      1.29305350	     -8.80121220	      4.52991570	    -13.83380351	      2.14156814	     -8.65524492	     -5.17324928	      4.89587065
      1.22900000	      5.35844559	      3.06306588	     -4.39233998	      0.17118022	      1.03295119	      0.24403850	     13.06510813	     -2.61485284	     -1.32656190	    -55.26833633	      6.66451868	    -21.23517172	      0.88878617	     -1.64844161	      6.46499755	      1.36304299	     -8.48016272	      4.59985051	    -13.81810471	      2.10979630	     -8.60412859	     -5.03913377	      4.76703061
      1.23316667	      5.34083641	      2.95748101	     -4.31011305	      0.17615040	      1.03336091	      0.24392828	     13.38207214	     -2.44458713	     -1.33557014	    -54.22551086	      6.67802788	    -21.07359572	      0.85593994	     -2.13645748	      6.37403075	      1.53287650	     -8.11054530	      4.68044440	    -13.88553048	      2.03193348	     -8.64837634	     -4.94153141	      4.42832983
      1.23733333	      5.26017899	      2.84331830	     -4.24302159	      0.18113730	      1.03364757	      0.24385018	     13.75369020	     -2.25099542	     -1.31242781	    -53.13884516	      6.68043302	    -20.88087545	      0.84696646	     -2.53385332	      6.26087223	      1.59935600	     -7.78561188	      4.73712647	    -13.86208231	      2.00055846	     -8.60876430	     -4.82940558	      4.29417116
      1.24150000	      5.24921658	      2.73099832	     -4.15014801	      0.18610844	      1.03398989	      0.24374543	     14.02440596	     -2.07535513	     -1.32364890	    -51.99852944	      6.63417149	    -20.74810606	      0.82865593	     -3.02758482	      6.15716569	      1.76836015	     -7.41790580	      4.81922509	    -13.91874678	      1.92322240	     -8.66720912	     -4.72558614	      3.94352169
      1.24566667	      5.17488620	      2.62509656	     -4.07434776	      0.19110175	      1.03418995	      0.24367151	     14.35598965	     -1.89868541	     -1.31281071	    -50.83186601	      6.59569216	    -20.55355977	      0.82450369	     -3.42893906	      6.04955740	      1.83443259	     -7.09562848	      4.87994398	    -13.89591249	      1.89008855	     -8.63168912	     -4.61866208	      3.79815744
      1.24983333	      5.14579889	      2.52977660	     -3.98006032	      0.19608263	      1.03440225	      0.24358204	     14.61986194	     -1.74395828	     -1.32199195	    -49.62534904	      6.50196608	    -20.44841296	      0.81840803	     -3.89809827	      5.95789160	      1.99262823	     -6.73391233	      4.97092963	    -13.94026875	      1.82054665	     -8.66316568	     -4.53315085	      3.45692819
      1.25400000	      5.05603061	      2.44332946	     -3.90569797	      0.20107931	      1.03446945	      0.24352686	     14.94545199	     -1.59312092	     -1.31001583	    -48.40155534	      6.43056177	    -20.25641666	      0.81882228	     -4.28121799	      5.86656912	      2.05434575	     -6.40982489	      5.03095430	    -13.91552441	      1.78814367	     -8.61730262	     -4.44812221	      3.30322585
      1.25816667	      5.03713055	      2.35949672	     -3.81019264	      0.20605335	      1.03461447	      0.24346104	     15.16499098	     -1.45314258	     -1.31140546	    -47.12023079	      6.29303671	    -20.18230780	      0.82201644	     -4.75606500	      5.78303046	      2.20903367	     -6.05456161	      5.11131285	    -13.95874086	      1.71606923	     -8.65680819	     -4.37947734	      2.95282898
      1.26233333	      4.96261781	      2.26773927	     -3.72135526	      0.21106139	      1.03463665	      0.24339268	     15.42963782	     -1.30707893	     -1.31626658	    -45.80971765	      6.17617340	    -20.01539811	      0.82637602	     -5.15023203	      5.68317060	      2.27958777	     -5.74303483	      5.17656954	    -13.93925145	      1.67990263	     -8.62314121	     -4.28527714	      2.78330685
      1.26650000	      4.88745083	      2.19857591	     -3.63891607	      0.21605582	      1.03458712	      0.24336211	     15.68928401	     -1.18334811	     -1.30931911	    -44.48338076	      6.03469215	    -19.89596399	      0.83161742	     -5.54611261	      5.60590809	      2.36677615	     -5.42245502	      5.26276572	    -13.92323255	      1.64589629	     -8.59064412	     -4.21927952	      2.56856451
      1.27066667	      4.87284802	      2.11806754	     -3.54462874	      0.22104374	      1.03462081	      0.24332465	     15.85154339	     -1.05310695	     -1.30717764	    -43.09980934	      5.83253210	    -19.87813036	      0.84600124	     -6.02510775	      5.51918784	      2.51332617	     -5.06681809	      5.35134459	    -13.94802423	      1.58079488	     -8.64081311	     -4.16237109	      2.21099704
      1.27483333	      4.78763302	      2.05591685	     -3.45555936	      0.22605413	      1.03447204	      0.24328785	     16.08795891	     -0.94607873	     -1.30986368	    -41.71545219	      5.66084007	    -19.78842777	      0.86508275	     -6.40600039	      5.44625547	      2.61323125	     -4.75461382	      5.43171577	    -13.95504946	      1.51952136	     -8.59961281	     -4.10561096	      1.96575913
